PathFileType	4	(X/Y/Z)	intermediate\S1_nor_med_left\tmpk2z6hi7d.trc
DataRate	CameraRate	NumFrames	NumMarkers	Units	OrigDataRate	OrigDataStartFrame	OrigNumFrames
250.0	250.0	14	18	mm	250.0	6718	7677
Frame#	Time	c7			r_should			l_should			clavicle			r_upa			r_elb_l			r_elb_m			r_low			r_wri_l			r_wri_m			r_met			l_upa			l_elb_l			l_elb_m			l_low			l_wri_l			l_wri_m			l_met			
		X	Y	Z	X	Y	Z	X	Y	Z	X	Y	Z	X	Y	Z	X	Y	Z	X	Y	Z	X	Y	Z	X	Y	Z	X	Y	Z	X	Y	Z	X	Y	Z	X	Y	Z	X	Y	Z	X	Y	Z	X	Y	Z	X	Y	Z	X	Y	Z	
6718	26.868000	912.621338	1418.383301	63.571053	979.984741	1358.921509	254.426056	982.661743	1336.564575	-121.858253	1050.922363	1298.532471	67.775490	983.605713	1146.421875	305.044220	1007.800964	1044.455078	313.046051	933.632324	1025.718750	241.771576	960.012878	915.755310	329.277710	1037.076172	823.698547	302.779144	969.633850	809.660034	322.192200	1072.774414	750.271790	320.640625	1001.925720	1108.435059	-129.608627	1014.839050	1024.813843	-137.375320	976.072144	1002.638123	-43.212513	995.232605	876.483704	-103.551392	1064.473145	795.876526	-127.756981	1030.422363	781.911072	-67.018608	1049.443726	725.028870	-151.451080	
6719	26.872000	912.644531	1418.366089	63.469097	979.936096	1358.955811	254.377487	982.804016	1336.499512	-121.889313	1050.954346	1298.537231	67.787643	983.584717	1146.473633	305.041077	1007.781494	1044.497437	313.029633	933.619690	1025.742432	241.769989	960.017456	915.788025	329.274628	1037.098267	823.739502	302.771301	969.659973	809.690491	322.187408	1072.811890	750.330994	320.619568	1002.380005	1108.391113	-129.521530	1015.299194	1024.761108	-137.269669	976.690430	1002.570618	-42.984482	995.169189	876.471741	-103.499741	1064.048950	795.569824	-127.755241	1030.041016	781.709290	-67.021797	1048.675293	724.814636	-151.470413	
6720	26.876000	912.661011	1418.353516	63.357964	979.875732	1358.990967	254.322983	982.946716	1336.434814	-121.919670	1050.987305	1298.546997	67.792511	983.557007	1146.519775	305.032440	1007.759338	1044.540771	313.031494	933.607605	1025.770508	241.758896	960.017761	915.819092	329.273834	1037.114136	823.789185	302.776123	969.683655	809.731628	322.187073	1072.837891	750.384949	320.612305	1002.793213	1108.347168	-129.447693	1015.718323	1024.698853	-137.181274	977.346313	1002.497437	-42.722389	995.086670	876.466980	-103.452904	1063.609253	795.264221	-127.754417	1029.675781	781.524292	-67.008255	1047.917236	724.605042	-151.495575	
6721	26.880000	912.684509	1418.343994	63.262947	979.814392	1359.030029	254.273529	983.097717	1336.362305	-121.954781	1051.030151	1298.549805	67.804512	983.515747	1146.554688	305.011261	1007.734436	1044.583740	313.040833	933.599182	1025.794556	241.748764	960.019836	915.851746	329.274384	1037.130127	823.837463	302.774200	969.701782	809.774536	322.186401	1072.844360	750.414612	320.480042	1003.167847	1108.302490	-129.387146	1016.078979	1024.624878	-137.119827	977.886230	1002.452393	-42.519436	994.993958	876.461975	-103.408157	1063.161499	794.961365	-127.763435	1029.302002	781.354797	-67.017349	1047.191895	724.393494	-151.525543	
6722	26.884000	912.715454	1418.332397	63.180305	979.749451	1359.072388	254.222153	983.248047	1336.288330	-121.987946	1051.073975	1298.556641	67.816895	983.480225	1146.601196	304.997437	1007.708191	1044.632568	313.033997	933.592163	1025.808350	241.737625	960.023254	915.887451	329.270996	1037.145874	823.890076	302.760468	969.721375	809.816467	322.183594	1072.816040	750.421509	320.207733	1003.512634	1108.250854	-129.330154	1016.391663	1024.564453	-137.070160	978.226257	1002.444885	-42.414352	994.882202	876.449219	-103.370239	1062.710815	794.671631	-127.772255	1028.892212	781.192749	-67.064308	1046.479736	724.162964	-151.571365	
6723	26.888000	912.741516	1418.312744	63.082203	979.679077	1359.112305	254.162247	983.403809	1336.220703	-122.015137	1051.114624	1298.558228	67.819580	983.443787	1146.645508	304.983765	1007.677795	1044.684082	313.026306	933.581970	1025.820801	241.731918	960.015564	915.924622	329.266663	1037.157349	823.942627	302.753784	969.741333	809.848083	322.173187	1072.822876	750.474304	320.136871	1003.820923	1108.197632	-129.273468	1016.664124	1024.505859	-137.023819	978.522034	1002.419922	-42.325256	994.741821	876.440735	-103.334297	1062.260864	794.395325	-127.782646	1028.504517	781.038879	-67.111519	1045.782837	723.916931	-151.621140	
6724	26.892000	912.768311	1418.298706	62.988110	979.611145	1359.147217	254.119370	983.553162	1336.157227	-122.043213	1051.155518	1298.565552	67.827545	983.409302	1146.696533	304.981628	1007.627380	1044.721436	313.032623	933.565613	1025.840332	241.717346	959.999329	915.957458	329.267517	1037.169067	823.995239	302.759399	969.757751	809.876709	322.171692	1072.847534	750.537720	320.119080	1004.087952	1108.146606	-129.224686	1016.896606	1024.431885	-136.982773	978.781799	1002.388000	-42.228981	994.588623	876.420227	-103.294960	1061.740601	794.164917	-127.898010	1028.134399	780.892212	-67.133980	1045.079834	723.696533	-151.661606	
6725	26.896000	912.799377	1418.286987	62.891899	979.541687	1359.176758	254.071777	983.694641	1336.096802	-122.080040	1051.202515	1298.572998	67.830360	983.361389	1146.734131	304.974640	1007.572876	1044.762695	313.044617	933.548767	1025.846924	241.705185	959.973328	915.985229	329.265778	1037.170410	824.051636	302.771118	969.765564	809.912292	322.178772	1072.893311	750.625122	320.230713	1004.320374	1108.093994	-129.179474	1017.092712	1024.364014	-136.951981	978.928650	1002.377258	-42.169304	994.420166	876.399780	-103.255844	1061.139771	793.985046	-128.142624	1027.755005	780.753601	-67.150604	1044.413818	723.504333	-151.683502	
6726	26.900000	912.825439	1418.275146	62.785908	979.469666	1359.213257	254.013992	983.833496	1336.027710	-122.111015	1051.252075	1298.580811	67.831070	983.299744	1146.775879	304.956329	1007.516846	1044.807983	313.060333	933.519958	1025.854370	241.694580	959.938110	916.016235	329.262115	1037.167358	824.108582	302.781769	969.761169	809.952515	322.180725	1072.937134	750.724060	320.376923	1004.520996	1108.039062	-129.136078	1017.255310	1024.296143	-136.927643	979.027710	1002.372498	-42.136120	994.240845	876.378296	-103.211258	1060.665527	793.784485	-128.220169	1027.364746	780.643250	-67.182846	1043.760254	723.349121	-151.705933	
6727	26.904000	912.851074	1418.254883	62.670589	979.402344	1359.251587	253.959061	983.974915	1335.958374	-122.143211	1051.296143	1298.579834	67.827385	983.236816	1146.821777	304.937439	1007.450439	1044.859863	313.071106	933.498596	1025.870850	241.685638	959.902161	916.049133	329.263519	1037.162231	824.164673	302.792236	969.750732	809.994995	322.185089	1072.936523	750.780334	320.309814	1004.694702	1107.986938	-129.099197	1017.373535	1024.226074	-136.909225	979.103271	1002.359497	-42.118050	994.049927	876.359497	-103.174072	1060.228882	793.601685	-128.256912	1026.991333	780.539551	-67.210648	1043.109375	723.218323	-151.765701	
6728	26.908000	912.880493	1418.228394	62.558205	979.338074	1359.280151	253.910690	984.109070	1335.901245	-122.175819	1051.338013	1298.581055	67.819206	983.162231	1146.864746	304.934021	1007.382141	1044.915649	313.082428	933.473572	1025.891479	241.665543	959.859802	916.083008	329.265503	1037.149536	824.220276	302.802429	969.741760	810.032837	322.184845	1072.994385	750.906860	320.537781	1004.839661	1107.935181	-129.066849	1017.453186	1024.156372	-136.890976	979.207886	1002.325317	-42.069744	993.838562	876.348022	-103.148743	1059.799683	793.422607	-128.285934	1026.628662	780.433777	-67.210953	1042.498535	723.095154	-151.834335	
6729	26.912000	912.910767	1418.216797	62.462429	979.270447	1359.312500	253.857697	984.243408	1335.850952	-122.209785	1051.375977	1298.582886	67.812675	983.078857	1146.903809	304.938171	1007.311829	1044.954956	313.084686	933.436890	1025.914307	241.647339	959.815735	916.117493	329.272156	1037.133423	824.274658	302.813232	969.728638	810.071228	322.186707	1073.009888	751.005493	320.612152	1004.945496	1107.885010	-129.043793	1017.502686	1024.085205	-136.870575	979.219910	1002.320618	-42.057446	993.610962	876.334778	-103.117752	1059.378296	793.250488	-128.311539	1026.200806	780.364441	-67.272026	1041.902100	722.984070	-151.909622	
6730	26.916000	912.940002	1418.207397	62.368526	979.210754	1359.345703	253.806824	984.377869	1335.803833	-122.243622	1051.415771	1298.580444	67.806419	982.976807	1146.924805	304.940857	1007.242065	1044.994629	313.095490	933.385559	1025.942749	241.648254	959.770447	916.150635	329.282196	1037.116211	824.329590	302.834167	969.712952	810.108521	322.196777	1073.023804	751.086853	320.653900	1005.015015	1107.834595	-129.026825	1017.522827	1024.015015	-136.862411	979.258484	1002.308838	-42.020325	993.366638	876.324036	-103.093628	1058.964844	793.087402	-128.328522	1025.001709	780.261047	-67.342300	1041.314697	722.870605	-151.978485	
6731	26.920000	912.972595	1418.191406	62.286385	979.158020	1359.375732	253.763474	984.503723	1335.762817	-122.293282	1051.455933	1298.574219	67.798492	982.885742	1146.970825	304.951080	1007.169739	1045.030396	313.109680	933.337769	1025.961670	241.639771	959.721497	916.182068	329.292267	1037.096924	824.386536	302.863373	969.697876	810.142822	322.213623	1073.036743	751.162476	320.684448	1005.062439	1107.786743	-129.015442	1017.514954	1023.940552	-136.861206	979.315674	1002.292175	-41.982212	993.117249	876.313110	-103.078781	1058.549438	792.935242	-128.355972	1022.943481	780.002136	-67.275116	1040.744019	722.742554	-152.018234	
